<svg width="1391" height="517" viewBox="0 0 1391 517" fill="none" xmlns="http://www.w3.org/2000/svg">
<path d="M116.82 39.235H78.7648V183.49H116.82V221.84H78.7648H75.8148H38.0548H-0.000233861V183.49H38.0548V39.235H-0.000233861V0.885008H38.0548H78.7648H116.82V39.235ZM167.124 0.589994L231.729 92.63V0.589994H269.194L424.954 221.84H375.099L273.324 74.045H272.439V221.545L171.549 74.045H170.664V221.84H129.659V0.589994H167.124ZM437.321 221.84V0.589994H474.491L630.251 221.84H580.691L540.866 164.61H478.326V221.84H437.321ZM478.326 126.555H514.611L478.916 73.75H478.326V126.555ZM869.849 108.855L797.574 214.465C791.28 216.628 784.79 218.398 778.104 219.775C771.614 221.152 765.025 221.84 758.339 221.84C754.012 221.84 749.98 221.545 746.244 220.955C732.084 219.578 718.809 215.842 706.419 209.745C694.029 203.648 683.114 195.782 673.674 186.145C664.43 176.312 657.154 165.003 651.844 152.22C646.534 139.437 643.879 125.67 643.879 110.92C643.879 95.58 646.927 81.2233 653.024 67.85C659.12 54.28 667.282 42.5783 677.509 32.745C687.932 22.715 699.929 14.8483 713.499 9.14501C727.265 3.44166 741.819 0.589994 757.159 0.589994C767.189 0.589994 777.219 2.065 787.249 5.01501C797.475 7.76834 807.112 11.8 816.159 17.11C825.205 22.42 833.367 28.8117 840.644 36.285C847.92 43.7583 853.624 52.215 857.754 61.655C858.737 63.2283 859.524 65.0967 860.114 67.26H853.624H813.209C806.915 57.6233 798.655 50.2483 788.429 45.135C778.202 39.825 767.484 37.17 756.274 37.17C746.047 37.17 736.41 39.1367 727.364 43.07C718.514 47.0033 710.745 52.3133 704.059 59C697.569 65.6867 692.455 73.5533 688.719 82.6C684.982 91.6467 683.114 101.283 683.114 111.51C683.114 116.427 683.704 121.343 684.884 126.26C686.064 130.98 687.539 135.602 689.309 140.125C695.405 154.482 704.55 165.593 716.744 173.46C728.937 181.13 742.802 184.965 758.339 184.965C760.895 184.965 763.255 184.867 765.419 184.67C767.779 184.473 770.139 184.178 772.499 183.785L799.049 146.025H732.379V108.855H824.419H869.849ZM884.136 221.84V0.589994H924.551V221.84H884.136ZM1070.2 221.84L977.572 60.475H976.982V221.84H935.977V1.60933e-06H982.587L1074.33 161.365H1074.92V1.60933e-06H1115.93V221.84H1070.2ZM1130.79 221.84V0.294998H1249.97V38.94H1171.79V92.925H1216.04V131.275H1171.79V183.49H1249.97V221.84H1130.79ZM141.305 321.255C147.205 326.565 152.416 332.563 156.94 339.25C161.463 345.937 165.2 353.017 168.15 360.49C171.296 367.767 173.656 375.437 175.23 383.5C176.803 391.367 177.59 399.233 177.59 407.1C177.59 416.54 176.41 425.98 174.05 435.42C171.69 444.663 168.248 453.513 163.725 461.97C159.398 470.23 153.891 477.9 147.205 484.98C140.715 491.863 133.241 497.665 124.785 502.385C114.165 508.285 102.266 512.218 89.0898 514.185C76.1098 515.955 63.5231 516.84 51.3298 516.84H0.294766V478.49H41.2998H50.1498C59.9831 478.49 69.1281 477.998 77.5848 477.015C86.0414 475.835 94.7931 472.787 103.84 467.87C109.15 464.92 113.87 461.282 118 456.955C122.326 452.432 125.866 447.515 128.62 442.205C131.373 436.895 133.438 431.29 134.815 425.39C136.388 419.293 137.175 413.197 137.175 407.1C137.175 396.873 135.11 386.942 130.98 377.305C126.85 367.668 120.95 359.408 113.28 352.525C108.166 348.002 102.758 344.56 97.0548 342.2C91.3514 339.643 85.4514 337.775 79.3548 336.595C73.2581 335.415 66.9648 334.727 60.4748 334.53C54.1814 334.137 47.7898 333.94 41.2998 333.94H0.294766V295.59H50.4448C58.1148 295.59 65.9814 295.983 74.0448 296.77C82.3048 297.36 90.3681 298.638 98.2348 300.605C106.298 302.572 113.968 305.227 121.245 308.57C128.521 311.717 135.208 315.945 141.305 321.255ZM373.283 516.84H323.723L243.778 401.2H264.428H290.978C296.288 401.2 301.303 400.512 306.023 399.135C310.94 397.758 315.168 395.693 318.708 392.94C322.248 390.187 325.001 386.745 326.968 382.615C329.131 378.288 330.213 373.175 330.213 367.275C330.213 361.572 329.131 356.655 326.968 352.525C324.805 348.395 321.953 344.953 318.413 342.2C314.873 339.447 310.743 337.382 306.023 336.005C301.303 334.628 296.288 333.94 290.978 333.94H264.428H233.748V401.2V431.88V516.84H192.743V295.59H223.423H233.748H291.568C301.401 295.59 310.841 296.573 319.888 298.54C328.935 300.31 337.391 304.243 345.258 310.34C353.518 317.223 359.91 325.287 364.433 334.53C368.956 343.773 371.218 353.607 371.218 364.03C371.218 373.47 369.35 383.008 365.613 392.645C361.876 402.282 356.763 410.345 350.273 416.835C344.57 422.342 338.866 426.373 333.163 428.93C327.46 431.29 320.871 433.257 313.398 434.83L373.283 516.84ZM383.737 516.84V295.59H420.907L576.667 516.84H527.107L487.282 459.61H424.742V516.84H383.737ZM424.742 421.555H461.027L425.332 368.75H424.742V421.555ZM816.265 403.855L743.99 509.465C737.696 511.628 731.206 513.398 724.52 514.775C718.03 516.152 711.441 516.84 704.755 516.84C700.428 516.84 696.396 516.545 692.66 515.955C678.5 514.578 665.225 510.842 652.835 504.745C640.445 498.648 629.53 490.782 620.09 481.145C610.846 471.312 603.57 460.003 598.26 447.22C592.95 434.437 590.295 420.67 590.295 405.92C590.295 390.58 593.343 376.223 599.44 362.85C605.536 349.28 613.698 337.578 623.925 327.745C634.348 317.715 646.345 309.848 659.915 304.145C673.681 298.442 688.235 295.59 703.575 295.59C713.605 295.59 723.635 297.065 733.665 300.015C743.891 302.768 753.528 306.8 762.575 312.11C771.621 317.42 779.783 323.812 787.06 331.285C794.336 338.758 800.04 347.215 804.17 356.655C805.153 358.228 805.94 360.097 806.53 362.26H800.04H759.625C753.331 352.623 745.071 345.248 734.845 340.135C724.618 334.825 713.9 332.17 702.69 332.17C692.463 332.17 682.826 334.137 673.78 338.07C664.93 342.003 657.161 347.313 650.475 354C643.985 360.687 638.871 368.553 635.135 377.6C631.398 386.647 629.53 396.283 629.53 406.51C629.53 411.427 630.12 416.343 631.3 421.26C632.48 425.98 633.955 430.602 635.725 435.125C641.821 449.482 650.966 460.593 663.16 468.46C675.353 476.13 689.218 479.965 704.755 479.965C707.311 479.965 709.671 479.867 711.835 479.67C714.195 479.473 716.555 479.178 718.915 478.785L745.465 441.025H678.795V403.855H770.835H816.265ZM943.242 516.84C928.098 516.84 913.742 513.988 900.172 508.285C886.798 502.582 874.998 494.813 864.772 484.98C854.742 474.95 846.777 463.248 840.877 449.875C834.977 436.502 832.027 422.145 832.027 406.805C832.027 391.268 834.878 376.813 840.582 363.44C846.482 349.87 854.447 338.07 864.477 328.04C874.703 318.01 886.503 310.143 899.877 304.44C913.447 298.54 927.902 295.59 943.242 295.59C958.582 295.59 973.037 298.54 986.607 304.44C1000.18 310.143 1011.98 318.01 1022.01 328.04C1032.04 338.07 1040 349.87 1045.9 363.44C1051.8 376.813 1054.75 391.268 1054.75 406.805C1054.75 422.145 1051.8 436.502 1045.9 449.875C1040 463.248 1031.94 474.95 1021.71 484.98C1011.68 494.813 999.882 502.582 986.312 508.285C972.938 513.988 958.582 516.84 943.242 516.84ZM943.242 332.76C933.212 332.76 923.772 334.727 914.922 338.66C906.268 342.593 898.697 347.903 892.207 354.59C885.717 361.277 880.603 369.143 876.867 378.19C873.327 387.04 871.557 396.48 871.557 406.51C871.557 416.343 873.425 425.685 877.162 434.535C880.898 443.385 885.913 451.153 892.207 457.84C898.697 464.527 906.268 469.837 914.922 473.77C923.772 477.703 933.212 479.67 943.242 479.67C953.272 479.67 962.613 477.703 971.267 473.77C980.117 469.837 987.688 464.527 993.982 457.84C1000.47 451.153 1005.58 443.385 1009.32 434.535C1013.06 425.685 1014.93 416.343 1014.93 406.51C1014.93 396.48 1013.06 387.04 1009.32 378.19C1005.78 369.143 1000.77 361.277 994.277 354.59C987.983 347.903 980.412 342.593 971.562 338.66C962.908 334.727 953.468 332.76 943.242 332.76ZM1200.42 516.84L1107.79 355.475H1107.2V516.84H1066.19V295H1112.8L1204.55 456.365H1205.14V295H1246.14V516.84H1200.42ZM1334.46 383.205C1342.52 385.958 1349.99 389.203 1356.88 392.94C1363.76 396.48 1369.66 400.905 1374.58 406.215C1379.69 411.328 1383.62 417.425 1386.38 424.505C1389.13 431.388 1390.51 439.452 1390.51 448.695C1390.51 458.725 1388.74 467.968 1385.2 476.425C1381.85 484.685 1377.03 491.863 1370.74 497.96C1364.64 503.86 1357.37 508.482 1348.91 511.825C1340.65 515.168 1331.51 516.84 1321.48 516.84H1259.53V479.67H1321.48C1329.34 479.67 1336.13 477.408 1341.83 472.885C1347.73 468.165 1350.68 461.675 1350.68 453.415C1350.68 447.318 1349.4 442.402 1346.85 438.665C1344.49 434.732 1341.34 431.585 1337.41 429.225C1333.67 426.668 1329.34 424.603 1324.43 423.03C1319.71 421.26 1314.99 419.49 1310.27 417.72C1307.12 416.343 1303.87 414.967 1300.53 413.59C1297.38 412.213 1294.24 410.837 1291.09 409.46C1280.27 403.757 1272.31 396.578 1267.2 387.925C1262.08 379.075 1259.53 368.553 1259.53 356.36C1259.53 347.51 1261.1 339.447 1264.25 332.17C1267.39 324.697 1271.72 318.305 1277.23 312.995C1282.73 307.685 1289.22 303.555 1296.7 300.605C1304.17 297.458 1312.23 295.787 1320.89 295.59H1322.36H1390.51V331.875H1379.59H1320.89C1314.79 331.875 1309.68 333.94 1305.55 338.07C1301.42 342.2 1299.35 347.412 1299.35 353.705C1299.35 358.818 1300.43 363.047 1302.6 366.39C1304.76 369.733 1307.51 372.487 1310.86 374.65C1314.4 376.617 1318.23 378.288 1322.36 379.665C1326.49 380.845 1330.52 382.025 1334.46 383.205Z" fill="#161616"/>
</svg>
